<svg width="32" height="32" viewBox="0 0 32 32" fill="none" xmlns="http://www.w3.org/2000/svg">
<path d="M21.3334 10.6667H13.3334C12.6261 10.6667 11.9478 10.9476 11.4477 11.4477C10.9476 11.9478 10.6667 12.6261 10.6667 13.3333C10.6667 14.0406 10.9476 14.7188 11.4477 15.2189C11.9478 15.719 12.6261 16 13.3334 16H18.6667C19.3739 16 20.0522 16.2809 20.5523 16.781C21.0524 17.2811 21.3334 17.9594 21.3334 18.6667C21.3334 19.3739 21.0524 20.0522 20.5523 20.5523C20.0522 21.0524 19.3739 21.3333 18.6667 21.3333H10.6667M16 24V7.99999M29.3334 16C29.3334 23.3638 23.3638 29.3333 16 29.3333C8.63622 29.3333 2.66669 23.3638 2.66669 16C2.66669 8.63619 8.63622 2.66666 16 2.66666C23.3638 2.66666 29.3334 8.63619 29.3334 16Z" stroke="white" stroke-width="2" stroke-linecap="round" stroke-linejoin="round"/>
</svg>
