<svg width="28" height="28" viewBox="0 0 28 28" fill="none" xmlns="http://www.w3.org/2000/svg">
<path fill-rule="evenodd" clip-rule="evenodd" d="M26.204 20.156C27.149 21.101 27.203 22.424 26.366 23.72L26.285 23.774C25.205 25.394 22.829 26.906 21.29 27.041V26.474H20.183V27.014C19.049 26.879 17.402 26.366 15.485 25.583C12.704 24.233 10.166 22.424 7.89801 20.156C7.43901 19.67 7.00701 19.211 6.19701 18.32C3.98301 15.62 2.52501 13.217 1.66101 10.733C1.41801 10.031 1.22901 9.46399 1.12101 8.95099C0.797008 7.43899 0.986008 5.87299 1.63401 4.57699C1.87701 4.17199 2.14701 3.84799 2.14701 3.84799L4.09101 1.93099L4.17201 1.82299C4.60401 1.30999 5.19801 1.03999 5.95401 1.03999C6.62901 1.09399 7.25001 1.36399 7.73601 1.84999L11.003 5.11699C12.11 6.22399 12.11 7.62799 11.003 8.76199L9.68001 10.085C9.30201 10.49 9.30201 11.138 9.68001 11.516L16.349 18.239C16.835 18.644 17.456 18.617 17.834 18.239L19.292 16.835C19.373 16.727 19.481 16.619 19.616 16.538C20.399 15.944 21.398 15.782 22.451 16.538C22.613 16.646 22.694 16.7 22.91 16.889L24.53 18.509C24.764 18.761 25.022 19.013 25.28 19.265C25.409 19.391 25.538 19.517 25.664 19.643L26.204 20.156ZM20.858 25.853H21.182L21.155 25.88C22.316 25.88 24.503 24.449 25.421 23.099C26.15 21.965 25.745 21.29 25.421 20.966L24.881 20.453L23.72 19.292L22.127 17.699C22.0651 17.6474 22.019 17.6077 21.9796 17.5737C21.9159 17.5188 21.8698 17.4791 21.803 17.429C21.128 16.97 20.696 17.132 20.291 17.429C20.237 17.483 20.048 17.645 20.048 17.645L18.644 19.022C17.861 19.805 16.511 19.859 15.593 19.022L8.92401 12.272C8.08701 11.435 8.08701 10.085 8.92401 9.24799L10.247 7.92499C10.922 7.24999 10.922 6.54799 10.247 5.87299L6.98001 2.60599C6.68301 2.33599 6.35901 2.14699 5.92701 2.14699C5.63001 2.14699 5.38701 2.22799 5.19801 2.38999L3.01101 4.57699C2.93001 4.65799 2.82201 4.81999 2.68701 5.06299C2.17401 6.11599 2.01201 7.38499 2.28201 8.65399C2.39001 9.11299 2.55201 9.62599 2.79501 10.301C3.63201 12.65 4.98201 14.918 7.11501 17.51C7.38827 17.8021 7.61549 18.0482 7.81504 18.2643C8.18727 18.6674 8.4632 18.9662 8.76201 19.265C10.949 21.452 13.379 23.18 16.025 24.449C17.618 25.097 19.697 25.799 20.858 25.853Z" fill="#FF6200"/>
<path d="M26.366 23.72L26.6434 24.136L26.7297 24.0784L26.786 23.9913L26.366 23.72ZM26.204 20.156L26.5577 19.8023L26.5484 19.7935L26.204 20.156ZM26.285 23.774L26.0077 23.358L25.9244 23.4134L25.869 23.4966L26.285 23.774ZM21.29 27.041H20.79V27.5868L21.3337 27.5391L21.29 27.041ZM21.29 26.474H21.79V25.974H21.29V26.474ZM20.183 26.474V25.974H19.683V26.474H20.183ZM20.183 27.014L20.1239 27.5105L20.683 27.577V27.014H20.183ZM15.485 25.583L15.2667 26.0328L15.2811 26.0398L15.2959 26.0459L15.485 25.583ZM7.89801 20.156L7.5345 20.4993L7.5394 20.5045L7.54445 20.5095L7.89801 20.156ZM6.19701 18.32L5.81037 18.637L5.81846 18.6469L5.82704 18.6563L6.19701 18.32ZM1.66101 10.733L1.18851 10.8965L1.18876 10.8973L1.66101 10.733ZM1.12101 8.95099L1.61029 8.84799L1.60991 8.84623L1.12101 8.95099ZM1.63401 4.57699L1.20526 4.31975L1.19538 4.33621L1.18679 4.35339L1.63401 4.57699ZM2.14701 3.84799L1.79594 3.49198L1.77854 3.50913L1.7629 3.5279L2.14701 3.84799ZM4.09101 1.93099L4.44208 2.28701L4.46863 2.26083L4.49101 2.23099L4.09101 1.93099ZM4.17201 1.82299L3.78955 1.50093L3.78047 1.51171L3.77201 1.52299L4.17201 1.82299ZM5.95401 1.03999L5.99388 0.541586L5.97398 0.539993H5.95401V1.03999ZM7.73601 1.84999L8.08956 1.49644L8.08956 1.49644L7.73601 1.84999ZM11.003 5.11699L11.3566 4.76344L11.3566 4.76344L11.003 5.11699ZM11.003 8.76199L11.3566 9.11557L11.3608 9.11126L11.003 8.76199ZM9.68001 10.085L9.32645 9.73144L9.32036 9.73753L9.31448 9.74383L9.68001 10.085ZM9.68001 11.516L10.035 11.1639L10.0336 11.1624L9.68001 11.516ZM16.349 18.239L15.994 18.5911L16.0107 18.6079L16.0289 18.6231L16.349 18.239ZM17.834 18.239L17.4871 17.8788L17.4805 17.8854L17.834 18.239ZM19.292 16.835L19.6388 17.1952L19.6678 17.1672L19.692 17.135L19.292 16.835ZM19.616 16.538L19.8733 16.9667L19.8966 16.9528L19.9182 16.9363L19.616 16.538ZM22.451 16.538L22.1594 16.9442L22.1664 16.9492L22.1737 16.954L22.451 16.538ZM22.91 16.889L23.2636 16.5354L23.2518 16.5237L23.2393 16.5127L22.91 16.889ZM24.53 18.509L24.8964 18.1688L24.8901 18.162L24.8836 18.1554L24.53 18.509ZM25.28 19.265L24.9306 19.6227L24.9306 19.6227L25.28 19.265ZM25.664 19.643L25.3103 19.9967L25.3196 20.0055L25.664 19.643ZM21.182 25.853L21.5356 26.2065L22.3891 25.353H21.182V25.853ZM20.858 25.853L20.8348 26.3525L20.8464 26.353H20.858V25.853ZM21.155 25.88L20.8015 25.5264L19.9479 26.38H21.155V25.88ZM25.421 23.099L25.8346 23.3802L25.8416 23.3694L25.421 23.099ZM25.421 20.966L25.7747 20.6123L25.7654 20.6035L25.421 20.966ZM24.881 20.453L24.5273 20.8067L24.5366 20.8155L24.881 20.453ZM23.72 19.292L23.3665 19.6455L23.3665 19.6455L23.72 19.292ZM22.127 17.699L22.4806 17.3454L22.4645 17.3294L22.4471 17.3149L22.127 17.699ZM21.9796 17.5737L22.306 17.195L22.306 17.195L21.9796 17.5737ZM21.803 17.429L22.103 17.029L22.0937 17.022L22.0842 17.0155L21.803 17.429ZM20.291 17.429L19.9953 17.0258L19.9645 17.0484L19.9375 17.0754L20.291 17.429ZM20.048 17.645L19.7226 17.2654L19.7099 17.2763L19.6979 17.288L20.048 17.645ZM18.644 19.022L18.2939 18.665L18.2905 18.6684L18.644 19.022ZM15.593 19.022L15.2373 19.3734L15.2465 19.3827L15.2561 19.3915L15.593 19.022ZM8.92401 12.272L9.2797 11.9206L9.27756 11.9184L8.92401 12.272ZM8.92401 9.24799L8.57046 8.89444L8.57046 8.89444L8.92401 9.24799ZM10.247 7.92499L9.89345 7.57144L9.89345 7.57144L10.247 7.92499ZM10.247 5.87299L9.89345 6.22655L9.89345 6.22655L10.247 5.87299ZM6.98001 2.60599L7.33356 2.25244L7.32515 2.24403L7.31635 2.23602L6.98001 2.60599ZM5.19801 2.38999L4.87261 2.01037L4.85803 2.02286L4.84446 2.03644L5.19801 2.38999ZM3.01101 4.57699L3.36456 4.93055L3.36456 4.93055L3.01101 4.57699ZM2.68701 5.06299L2.24993 4.82017L2.2434 4.83192L2.23751 4.84401L2.68701 5.06299ZM2.28201 8.65399L1.79284 8.75807L1.7953 8.76851L2.28201 8.65399ZM2.79501 10.301L3.266 10.1332L3.26545 10.1316L2.79501 10.301ZM7.11501 17.51L6.72893 17.8277L6.73902 17.84L6.74987 17.8516L7.11501 17.51ZM7.81504 18.2643L8.18238 17.9251L8.18238 17.9251L7.81504 18.2643ZM8.76201 19.265L9.11556 18.9114L9.11556 18.9114L8.76201 19.265ZM16.025 24.449L15.8088 24.8998L15.8225 24.9064L15.8366 24.9121L16.025 24.449ZM26.786 23.9913C27.2484 23.2754 27.4853 22.5196 27.4528 21.7843C27.42 21.0425 27.1141 20.359 26.5576 19.8024L25.8505 20.5095C26.2389 20.898 26.4325 21.3484 26.4537 21.8284C26.4752 22.3149 26.3206 22.8686 25.946 23.4487L26.786 23.9913ZM26.5624 24.19L26.6434 24.136L26.0887 23.304L26.0077 23.358L26.5624 24.19ZM21.3337 27.5391C22.2186 27.4615 23.2776 27.0025 24.2316 26.3839C25.1927 25.7608 26.1132 24.9332 26.701 24.0513L25.869 23.4966C25.3769 24.2348 24.5693 24.9732 23.6876 25.5448C22.7989 26.121 21.9004 26.4855 21.2463 26.5429L21.3337 27.5391ZM20.79 26.474V27.041H21.79V26.474H20.79ZM20.183 26.974H21.29V25.974H20.183V26.974ZM20.683 27.014V26.474H19.683V27.014H20.683ZM15.2959 26.0459C17.2226 26.8328 18.9206 27.3672 20.1239 27.5105L20.2421 26.5175C19.1774 26.3908 17.5814 25.8992 15.6741 25.1201L15.2959 26.0459ZM7.54445 20.5095C9.85096 22.8161 12.4344 24.6579 15.2667 26.0328L15.7034 25.1332C12.9736 23.8081 10.4811 22.0319 8.25156 19.8024L7.54445 20.5095ZM5.82704 18.6563C6.63979 19.5504 7.07407 20.0118 7.5345 20.4993L8.26151 19.8127C7.80395 19.3282 7.37422 18.8716 6.56698 17.9837L5.82704 18.6563ZM1.18876 10.8973C2.07813 13.4542 3.57286 15.9084 5.81037 18.637L6.58364 18.003C4.39316 15.3316 2.97188 12.9798 2.13326 10.5687L1.18876 10.8973ZM0.631733 9.054C0.747235 9.60264 0.946951 10.1987 1.18851 10.8965L2.1335 10.5694C1.88906 9.86329 1.71078 9.32535 1.61028 8.84799L0.631733 9.054ZM1.18679 4.35339C0.485323 5.75633 0.285613 7.43879 0.632107 9.05576L1.60991 8.84623C1.3084 7.4392 1.48669 5.98966 2.08122 4.8006L1.18679 4.35339ZM2.14701 3.84799C1.7629 3.5279 1.76287 3.52793 1.76284 3.52797C1.76283 3.52798 1.7628 3.52802 1.76278 3.52805C1.76273 3.5281 1.76268 3.52816 1.76263 3.52822C1.76253 3.52835 1.76241 3.52849 1.76227 3.52866C1.76199 3.52899 1.76165 3.5294 1.76124 3.52989C1.76043 3.53087 1.75936 3.53217 1.75804 3.53377C1.7554 3.53697 1.75176 3.54141 1.7472 3.54701C1.73808 3.55822 1.72524 3.57412 1.70927 3.59425C1.67738 3.63446 1.63283 3.69175 1.5804 3.76227C1.47616 3.90246 1.33779 4.09886 1.20526 4.31975L2.06275 4.83424C2.17322 4.65013 2.29136 4.48203 2.38286 4.35897C2.42831 4.29786 2.46644 4.24884 2.49277 4.21564C2.50592 4.19907 2.51607 4.1865 2.52266 4.1784C2.52596 4.17436 2.52836 4.17143 2.52979 4.16969C2.53051 4.16882 2.53098 4.16825 2.53121 4.16798C2.53132 4.16784 2.53137 4.16778 2.53136 4.1678C2.53135 4.16781 2.53132 4.16784 2.53129 4.16789C2.53127 4.16791 2.53124 4.16794 2.53121 4.16797C2.5312 4.16799 2.53118 4.16802 2.53117 4.16802C2.53114 4.16805 2.53112 4.16809 2.14701 3.84799ZM3.73994 1.57498L1.79594 3.49198L2.49808 4.20401L4.44208 2.28701L3.73994 1.57498ZM3.77201 1.52299L3.69101 1.63099L4.49101 2.23099L4.57201 2.12299L3.77201 1.52299ZM5.95401 0.539993C5.06423 0.539993 4.32504 0.86503 3.78955 1.50093L4.55446 2.14506C4.88297 1.75496 5.33179 1.53999 5.95401 1.53999V0.539993ZM8.08956 1.49644C7.51447 0.921348 6.77999 0.604474 5.99388 0.541586L5.91413 1.5384C6.47803 1.58351 6.98555 1.80664 7.38245 2.20355L8.08956 1.49644ZM11.3566 4.76344L8.08956 1.49644L7.38245 2.20355L10.6495 5.47055L11.3566 4.76344ZM11.3608 9.11126C11.9871 8.46972 12.3333 7.71518 12.3333 6.92937C12.3333 6.14264 11.9862 5.39309 11.3566 4.76344L10.6495 5.47055C11.1268 5.94789 11.3333 6.45384 11.3333 6.92937C11.3333 7.4058 11.126 7.92027 10.6452 8.41272L11.3608 9.11126ZM10.0336 10.4385L11.3566 9.11555L10.6495 8.40844L9.32645 9.73144L10.0336 10.4385ZM10.0336 11.1624C9.85728 10.9862 9.84038 10.646 10.0455 10.4262L9.31448 9.74383C8.76364 10.334 8.74674 11.2898 9.32645 11.8695L10.0336 11.1624ZM16.704 17.8869L10.035 11.1639L9.32503 11.8681L15.994 18.5911L16.704 17.8869ZM17.4805 17.8854C17.3057 18.0602 16.9794 18.1135 16.6691 17.8549L16.0289 18.6231C16.6906 19.1745 17.6063 19.1738 18.1876 18.5925L17.4805 17.8854ZM18.9452 16.4748L17.4872 17.8788L18.1808 18.5992L19.6388 17.1952L18.9452 16.4748ZM19.3588 16.1092C19.1576 16.2299 19.0036 16.3863 18.892 16.535L19.692 17.135C19.7424 17.0677 19.8044 17.008 19.8733 16.9667L19.3588 16.1092ZM22.7426 16.1318C22.138 15.6977 21.5168 15.5066 20.9111 15.5322C20.31 15.5576 19.7689 15.7944 19.3138 16.1396L19.9182 16.9363C20.2462 16.6875 20.596 16.5464 20.9534 16.5313C21.3062 16.5164 21.711 16.6223 22.1594 16.9442L22.7426 16.1318ZM23.2393 16.5127C23.0022 16.3053 22.9026 16.2381 22.7284 16.122L22.1737 16.954C22.3234 17.0539 22.3858 17.0947 22.5808 17.2653L23.2393 16.5127ZM24.8836 18.1554L23.2636 16.5354L22.5565 17.2425L24.1765 18.8625L24.8836 18.1554ZM25.6294 18.9073C25.3696 18.6536 25.1206 18.4102 24.8964 18.1688L24.1636 18.8492C24.4074 19.1118 24.6744 19.3724 24.9306 19.6227L25.6294 18.9073ZM26.0176 19.2894C25.8891 19.161 25.758 19.0329 25.6294 18.9073L24.9306 19.6227C25.06 19.749 25.1869 19.873 25.3105 19.9965L26.0176 19.2894ZM26.5484 19.7935L26.0084 19.2805L25.3196 20.0055L25.8596 20.5185L26.5484 19.7935ZM21.182 25.353H20.858V26.353H21.182V25.353ZM21.5086 26.2335L21.5356 26.2065L20.8285 25.4994L20.8015 25.5264L21.5086 26.2335ZM25.0075 22.8178C24.5971 23.4215 23.877 24.0737 23.1058 24.577C22.7238 24.8264 22.3415 25.0311 21.9943 25.172C21.6401 25.3157 21.354 25.38 21.155 25.38V26.38C21.5365 26.38 21.9591 26.2654 22.3703 26.0986C22.7884 25.929 23.2278 25.6916 23.6524 25.4144C24.4945 24.8648 25.3269 24.1265 25.8345 23.3802L25.0075 22.8178ZM25.0675 21.3195C25.182 21.4341 25.2907 21.5903 25.321 21.8001C25.3505 22.0045 25.3166 22.3368 25.0004 22.8286L25.8416 23.3694C26.2544 22.7272 26.3825 22.155 26.3108 21.6574C26.2398 21.1652 25.9841 20.8219 25.7746 20.6124L25.0675 21.3195ZM24.5366 20.8155L25.0766 21.3285L25.7654 20.6035L25.2254 20.0905L24.5366 20.8155ZM23.3665 19.6455L24.5275 20.8065L25.2346 20.0994L24.0736 18.9384L23.3665 19.6455ZM21.7735 18.0525L23.3665 19.6455L24.0736 18.9384L22.4806 17.3454L21.7735 18.0525ZM21.6532 17.9525C21.6929 17.9867 21.7416 18.0287 21.8069 18.0831L22.4471 17.3149C22.3886 17.2661 22.3451 17.2287 22.306 17.195L21.6532 17.9525ZM21.503 17.829C21.5547 17.8677 21.5892 17.8974 21.6532 17.9525L22.306 17.195C22.2425 17.1403 22.1848 17.0904 22.103 17.029L21.503 17.829ZM20.5867 17.8322C20.7616 17.704 20.8805 17.6527 20.9873 17.6438C21.0843 17.6357 21.2487 17.6567 21.5219 17.8425L22.0842 17.0155C21.6823 16.7423 21.2932 16.6148 20.9042 16.6472C20.5251 16.6788 20.2255 16.857 19.9953 17.0258L20.5867 17.8322ZM20.048 17.645C20.3734 18.0246 20.3734 18.0246 20.3734 18.0246C20.3734 18.0246 20.3734 18.0246 20.3734 18.0246C20.3734 18.0246 20.3735 18.0246 20.3735 18.0246C20.3735 18.0245 20.3736 18.0245 20.3736 18.0244C20.3737 18.0243 20.3739 18.0242 20.3741 18.024C20.3745 18.0237 20.3751 18.0232 20.3758 18.0225C20.3773 18.0212 20.3795 18.0194 20.3823 18.017C20.3878 18.0123 20.3956 18.0055 20.4052 17.9972C20.4243 17.9807 20.4505 17.9581 20.4785 17.9335C20.5284 17.8899 20.6033 17.8239 20.6446 17.7826L19.9375 17.0754C19.9376 17.0753 19.9366 17.0763 19.9341 17.0786C19.9318 17.0809 19.9287 17.0838 19.9248 17.0874C19.917 17.0947 19.9072 17.1036 19.8958 17.1139C19.8729 17.1345 19.8461 17.1581 19.82 17.181C19.7941 17.2037 19.7696 17.2249 19.7516 17.2404C19.7426 17.2482 19.7353 17.2545 19.7302 17.2588C19.7277 17.261 19.7257 17.2627 19.7245 17.2638C19.7238 17.2643 19.7233 17.2648 19.723 17.265C19.7229 17.2652 19.7227 17.2653 19.7227 17.2653C19.7226 17.2653 19.7226 17.2654 19.7226 17.2654C19.7226 17.2654 19.7226 17.2654 19.7226 17.2654C19.7226 17.2654 19.7226 17.2654 19.7226 17.2654C19.7226 17.2654 19.7226 17.2654 20.048 17.645ZM18.9941 19.379L20.3981 18.002L19.6979 17.288L18.2939 18.665L18.9941 19.379ZM15.2561 19.3915C16.3642 20.4017 18.0186 20.3545 18.9976 19.3755L18.2905 18.6684C17.7034 19.2555 16.6578 19.3162 15.9299 18.6525L15.2561 19.3915ZM8.56833 12.6234L15.2373 19.3734L15.9487 18.6706L9.27969 11.9206L8.56833 12.6234ZM8.57046 8.89444C7.53819 9.9267 7.53819 11.5933 8.57046 12.6255L9.27756 11.9184C8.63582 11.2767 8.63582 10.2433 9.27756 9.60155L8.57046 8.89444ZM9.89345 7.57144L8.57046 8.89444L9.27756 9.60155L10.6006 8.27855L9.89345 7.57144ZM9.89345 6.22655C10.1729 6.50603 10.2533 6.73056 10.2533 6.89899C10.2533 7.06743 10.1729 7.29195 9.89345 7.57144L10.6006 8.27855C10.9961 7.88304 11.2533 7.41906 11.2533 6.89899C11.2533 6.37893 10.9961 5.91495 10.6006 5.51944L9.89345 6.22655ZM6.62646 2.95955L9.89345 6.22655L10.6006 5.51944L7.33356 2.25244L6.62646 2.95955ZM5.92701 2.64699C6.18862 2.64699 6.39778 2.75243 6.64367 2.97596L7.31635 2.23602C6.96823 1.91956 6.5294 1.64699 5.92701 1.64699V2.64699ZM5.5234 2.76962C5.60499 2.6997 5.7252 2.64699 5.92701 2.64699V1.64699C5.53481 1.64699 5.16903 1.75629 4.87261 2.01037L5.5234 2.76962ZM3.36456 4.93055L5.55156 2.74355L4.84446 2.03644L2.65746 4.22344L3.36456 4.93055ZM3.12409 5.30582C3.25951 5.06205 3.33836 4.95675 3.36456 4.93055L2.65746 4.22344C2.52166 4.35924 2.3845 4.57794 2.24993 4.82017L3.12409 5.30582ZM2.77106 8.54994C2.52343 7.38605 2.67409 6.23114 3.1365 5.28198L2.23751 4.84401C1.67392 6.00085 1.50059 7.38394 1.79296 8.75805L2.77106 8.54994ZM3.26545 10.1316C3.0252 9.46428 2.8704 8.97164 2.76872 8.53947L1.7953 8.76851C1.90961 9.25435 2.07881 9.78771 2.32456 10.4704L3.26545 10.1316ZM7.50109 17.1923C5.39395 14.6317 4.07856 12.4136 3.266 10.1332L2.32402 10.4688C3.18546 12.8864 4.57006 15.2043 6.72893 17.8277L7.50109 17.1923ZM8.18238 17.9251C7.98283 17.709 7.75463 17.4618 7.48015 17.1684L6.74987 17.8516C7.02191 18.1424 7.24815 18.3874 7.4477 18.6035L8.18238 17.9251ZM9.11556 18.9114C8.82508 18.621 8.5561 18.3298 8.18238 17.9251L7.4477 18.6035C7.81844 19.005 8.10131 19.3114 8.40846 19.6185L9.11556 18.9114ZM16.2412 23.9982C13.6481 22.7545 11.2641 21.06 9.11556 18.9114L8.40846 19.6185C10.6339 21.844 13.1099 23.6055 15.8088 24.8998L16.2412 23.9982ZM20.8812 25.3535C20.3664 25.3296 19.6063 25.1566 18.7492 24.8955C17.9029 24.6376 16.9995 24.3056 16.2134 23.9858L15.8366 24.9121C16.6436 25.2404 17.5761 25.5834 18.4578 25.852C19.3287 26.1174 20.1886 26.3224 20.8348 26.3525L20.8812 25.3535Z" fill="white"/>
</svg>
