<svg width="182" height="32" viewBox="0 0 182 32" fill="none" xmlns="http://www.w3.org/2000/svg">
<path d="M15.1141 21.1222L21.6815 19.5108L24.4255 27.6984L15.1141 21.1222ZM30.2282 10.5393H18.6677L15.1141 0L11.5605 10.5393H0L9.35635 17.0719L5.80273 27.6113L15.1591 21.0786L20.9168 17.0719L30.2282 10.5393Z" fill="#219653"/>
<path d="M52.6362 5.29508H45.1129V25.1803H40.0523V5.29508H32.6302V1.31148H52.6362V5.29508Z" fill="black"/>
<path d="M64.3597 11.8852C63.6962 11.7978 63.1115 11.7541 62.6054 11.7541C60.7611 11.7541 59.5522 12.3607 58.9787 13.5738V25.1803H54.1037V7.44262H58.7088L58.8438 9.55738C59.8221 7.92896 61.1772 7.11475 62.909 7.11475C63.4488 7.11475 63.9549 7.18579 64.4272 7.32787L64.3597 11.8852Z" fill="black"/>
<path d="M77.652 23.377C76.4487 24.7978 74.7844 25.5082 72.659 25.5082C70.7022 25.5082 69.2066 24.9617 68.172 23.8689C67.1486 22.776 66.6257 21.1749 66.6032 19.0656V7.44262H71.4782V18.9016C71.4782 20.7486 72.3441 21.6721 74.0759 21.6721C75.729 21.6721 76.8648 21.1148 77.4833 20V7.44262H82.3752V25.1803H77.787L77.652 23.377Z" fill="black"/>
<path d="M95.9374 20.2787C95.9374 19.6995 95.6394 19.2459 95.0434 18.918C94.4586 18.5792 93.514 18.2787 92.2095 18.0164C87.8687 17.1311 85.6983 15.3388 85.6983 12.6393C85.6983 11.0656 86.3674 9.7541 87.7056 8.70492C89.0551 7.64481 90.815 7.11475 92.9854 7.11475C95.302 7.11475 97.1519 7.64481 98.5351 8.70492C99.9296 9.76503 100.627 11.1421 100.627 12.8361H95.7518C95.7518 12.1585 95.5269 11.6011 95.0771 11.1639C94.6273 10.7158 93.9244 10.4918 92.9685 10.4918C92.1476 10.4918 91.5122 10.6721 91.0624 11.0328C90.6126 11.3934 90.3877 11.8525 90.3877 12.4098C90.3877 12.9344 90.6407 13.3607 91.1468 13.6885C91.6641 14.0055 92.53 14.2842 93.7445 14.5246C94.959 14.7541 95.9824 15.0164 96.8145 15.3115C99.3898 16.2295 100.677 17.8197 100.677 20.082C100.677 21.6995 99.9633 23.0109 98.5351 24.0164C97.1069 25.0109 95.2626 25.5082 93.0023 25.5082C91.4729 25.5082 90.1122 25.2459 88.9201 24.7213C87.7393 24.1858 86.8116 23.459 86.1368 22.541C85.4621 21.612 85.1247 20.612 85.1247 19.541H89.7467C89.7917 20.3825 90.1122 21.0273 90.7082 21.4754C91.3042 21.9235 92.1026 22.1475 93.1035 22.1475C94.0369 22.1475 94.7397 21.9781 95.212 21.6393C95.6956 21.2896 95.9374 20.8361 95.9374 20.2787Z" fill="black"/>
<path d="M109.668 3.08197V7.44262H112.789V10.918H109.668V19.7705C109.668 20.4262 109.798 20.8962 110.056 21.1803C110.315 21.4645 110.81 21.6066 111.541 21.6066C112.08 21.6066 112.558 21.5683 112.974 21.4918V25.082C112.019 25.3661 111.035 25.5082 110.023 25.5082C106.604 25.5082 104.861 23.8306 104.793 20.4754V10.918H102.128V7.44262H104.793V3.08197H109.668Z" fill="black"/>
<path d="M131.935 16.4754C131.935 19.2077 131.294 21.3989 130.012 23.0492C128.741 24.6885 127.02 25.5082 124.85 25.5082C123.006 25.5082 121.516 24.8852 120.38 23.6393V32H115.505V7.44262H120.025L120.194 9.18033C121.375 7.80328 122.916 7.11475 124.816 7.11475C127.065 7.11475 128.814 7.9235 130.062 9.54098C131.31 11.1585 131.935 13.388 131.935 16.2295V16.4754ZM127.06 16.1311C127.06 14.4809 126.756 13.2077 126.149 12.3115C125.553 11.4153 124.681 10.9672 123.534 10.9672C122.005 10.9672 120.953 11.5355 120.38 12.6721V19.9344C120.976 21.1038 122.038 21.6885 123.568 21.6885C125.896 21.6885 127.06 19.8361 127.06 16.1311Z" fill="black"/>
<path d="M140.116 25.1803H135.224V7.44262H140.116V25.1803ZM134.937 2.85246C134.937 2.14208 135.179 1.55738 135.662 1.09836C136.157 0.639344 136.826 0.409836 137.67 0.409836C138.502 0.409836 139.165 0.639344 139.66 1.09836C140.155 1.55738 140.403 2.14208 140.403 2.85246C140.403 3.57377 140.149 4.16393 139.643 4.62295C139.149 5.08197 138.491 5.31148 137.67 5.31148C136.849 5.31148 136.185 5.08197 135.679 4.62295C135.185 4.16393 134.937 3.57377 134.937 2.85246Z" fill="black"/>
<path d="M149.292 25.1803H144.4V0H149.292V25.1803Z" fill="black"/>
<path d="M152.565 16.1475C152.565 14.388 152.913 12.8197 153.61 11.4426C154.308 10.0656 155.309 9 156.613 8.2459C157.929 7.4918 159.453 7.11475 161.184 7.11475C163.647 7.11475 165.655 7.84699 167.206 9.31148C168.77 10.776 169.641 12.765 169.821 15.2787L169.855 16.4918C169.855 19.2131 169.073 21.3989 167.51 23.0492C165.947 24.6885 163.85 25.5082 161.218 25.5082C158.587 25.5082 156.484 24.6885 154.909 23.0492C153.346 21.4098 152.565 19.1803 152.565 16.3607V16.1475ZM157.44 16.4918C157.44 18.1749 157.766 19.4645 158.418 20.3607C159.07 21.2459 160.004 21.6885 161.218 21.6885C162.399 21.6885 163.321 21.2514 163.985 20.377C164.648 19.4918 164.98 18.082 164.98 16.1475C164.98 14.4973 164.648 13.2186 163.985 12.3115C163.321 11.4044 162.388 10.9508 161.184 10.9508C159.992 10.9508 159.07 11.4044 158.418 12.3115C157.766 13.2077 157.44 14.6011 157.44 16.4918Z" fill="black"/>
<path d="M178.694 3.08197V7.44262H181.814V10.918H178.694V19.7705C178.694 20.4262 178.823 20.8962 179.082 21.1803C179.34 21.4645 179.835 21.6066 180.566 21.6066C181.106 21.6066 181.584 21.5683 182 21.4918V25.082C181.044 25.3661 180.06 25.5082 179.048 25.5082C175.629 25.5082 173.886 23.8306 173.819 20.4754V10.918H171.154V7.44262H173.819V3.08197H178.694Z" fill="black"/>
</svg>
